<svg xmlns="http://www.w3.org/2000/svg" viewBox="0 0 512 512">
    <defs>
        <linearGradient id="gradient-outline" x1="0%" y1="0%" x2="100%" y2="100%">
            <stop offset="0%" stop-color="#4A90D9"/>
            <stop offset="100%" stop-color="#7C3AED"/>
        </linearGradient>
    </defs>
    <!-- Shield Background -->
    <path d="M 150 70 H 362 C 400 70, 422 100, 422 140 V 350 L 256 440 L 90 350 V 140 C 90 100, 112 70, 150 70 Z" fill="#1A1A2E"/>
    <!-- Shield Outline -->
    <path d="M 150 70 H 362 C 400 70, 422 100, 422 140 V 350 L 256 440 L 90 350 V 140 C 90 100, 112 70, 150 70 Z" fill="none" stroke="url(#gradient-outline)" stroke-width="12"/>
    <!-- Inner Symbol: Terminal/Command Prompt -->
    <rect x="180" y="180" width="152" height="100" rx="8" ry="8" fill="#00D4AA"/>
    <path d="M 205 220 L 220 230 L 205 240" fill="none" stroke="#1A1A2E" stroke-width="10" stroke-linecap="round" stroke-linejoin="round"/>
    <line x1="230" y1="240" x2="245" y2="240" stroke="#1A1A2E" stroke-width="10" stroke-linecap="round"/>
</svg>